<svg width="40" height="40" viewBox="0 0 40 40" fill="none" xmlns="http://www.w3.org/2000/svg">
<g clip-path="url(#clip0_503_10797)">
<mask id="mask0_503_10797" style="mask-type:luminance" maskUnits="userSpaceOnUse" x="0" y="0" width="40" height="40">
<path d="M40 20C40 8.9543 31.0457 0 20 0C8.9543 0 0 8.9543 0 20C0 31.0457 8.9543 40 20 40C31.0457 40 40 31.0457 40 20Z" fill="white"/>
</mask>
<g mask="url(#mask0_503_10797)">
<path d="M19.9556 32.4794C17.4308 32.4794 15.2575 31.968 13.4357 30.9453C11.6247 29.9119 10.2291 28.4524 9.24898 26.5668C8.26886 24.6705 7.77881 22.4279 7.77881 19.8391C7.77881 17.3143 8.26886 15.0984 9.24898 13.1914C10.2291 11.2844 11.6087 9.79829 13.3878 8.73295C15.1776 7.66761 17.2763 7.13494 19.684 7.13494C21.3033 7.13494 22.8107 7.39595 24.2063 7.91797C25.6126 8.42933 26.8377 9.2017 27.8818 10.2351C28.9365 11.2685 29.7568 12.5682 30.3427 14.1342C30.9286 15.6896 31.2216 17.5114 31.2216 19.5994V21.4691H10.4954V17.2504H24.8136C24.8136 16.2702 24.6005 15.402 24.1744 14.6456C23.7482 13.8892 23.157 13.2979 22.4006 12.8718C21.6549 12.435 20.7866 12.2166 19.7958 12.2166C18.7625 12.2166 17.8463 12.4563 17.0473 12.9357C16.2589 13.4045 15.641 14.0384 15.1936 14.8374C14.7461 15.6257 14.5171 16.5046 14.5064 17.4741V21.4851C14.5064 22.6996 14.7301 23.7489 15.1776 24.6332C15.6357 25.5174 16.2802 26.1992 17.1112 26.6786C17.9421 27.158 18.9276 27.3977 20.0675 27.3977C20.8239 27.3977 21.5164 27.2912 22.1449 27.0781C22.7735 26.8651 23.3115 26.5455 23.7589 26.1193C24.2063 25.6932 24.5473 25.1712 24.7816 24.5533L31.0778 24.9688C30.7582 26.4815 30.103 27.8026 29.1122 28.9318C28.1321 30.0504 26.8644 30.924 25.309 31.5526C23.7642 32.1705 21.9798 32.4794 19.9556 32.4794Z" fill="#1E252C"/>
</g>
<path d="M38 20C38 10.0589 29.9411 2 20 2C10.0589 2 2 10.0589 2 20C2 29.9411 10.0589 38 20 38C29.9411 38 38 29.9411 38 20Z" stroke="#1E252C" stroke-width="4" stroke-linejoin="round"/>
</g>
<defs>
<clipPath id="clip0_503_10797">
<rect width="40" height="40" fill="white"/>
</clipPath>
</defs>
</svg>
